<svg xmlns="http://www.w3.org/2000/svg" width="15" height="15"><path fill-rule="evenodd" d="M10.946 15H4.052a4.057 4.057 0 0 1-4.053-4.053V4.053A4.057 4.057 0 0 1 4.052 0h6.894A4.058 4.058 0 0 1 15 4.053v6.894A4.058 4.058 0 0 1 10.946 15zm2.842-10.947a2.844 2.844 0 0 0-2.842-2.841H4.052a2.844 2.844 0 0 0-2.841 2.841v6.894a2.845 2.845 0 0 0 2.841 2.841h6.894a2.845 2.845 0 0 0 2.842-2.841V4.053zm-2.497.261a.613.613 0 0 1-.428-.177.606.606 0 1 1 .428.177zm-1.06 5.16a3.343 3.343 0 0 1-2.709 1.36 3.343 3.343 0 0 1-1.997-.662 3.347 3.347 0 0 1-1.323-2.209 3.338 3.338 0 0 1 .626-2.497 3.343 3.343 0 0 1 2.208-1.323c.327-.049.659-.049.987 0a3.342 3.342 0 0 1 1.885.948c.514.515.842 1.166.949 1.886a3.347 3.347 0 0 1-.626 2.497zm-.573-2.32a2.141 2.141 0 0 0-2.129-1.836 2.142 2.142 0 0 0-1.728.87 2.142 2.142 0 0 0-.4 1.598c.084.568.385 1.07.846 1.412a2.154 2.154 0 0 0 3.411-2.044z"/></svg>