<svg xmlns="http://www.w3.org/2000/svg" width="18" height="10"><path fill-rule="evenodd" d="M17.903 9.032a1.25 1.25 0 0 0-.061-.114c-.312-.548-.909-1.22-1.79-2.017l-.019-.019-.009-.009-.009-.009h-.01c-.399-.371-.653-.621-.759-.749-.194-.243-.237-.489-.131-.739.075-.189.356-.587.843-1.196.257-.322.46-.581.61-.776 1.08-1.399 1.549-2.294 1.405-2.684l-.056-.091c-.037-.055-.134-.104-.29-.15-.157-.046-.356-.053-.6-.023l-2.699.018a.352.352 0 0 0-.187.005l-.122.027-.047.023-.037.028a.395.395 0 0 0-.103.095.613.613 0 0 0-.094.16 14.779 14.779 0 0 1-1.003 2.054c-.231.377-.443.704-.637.981a4.802 4.802 0 0 1-.487.612c-.132.131-.25.236-.356.315-.107.079-.188.112-.244.1a6.682 6.682 0 0 1-.159-.036.614.614 0 0 1-.211-.224.99.99 0 0 1-.108-.356 4.362 4.362 0 0 1-.033-.37 7.805 7.805 0 0 1 .005-.438c.007-.189.01-.316.01-.384 0-.231.004-.482.014-.753.009-.27.016-.485.023-.643.006-.158.009-.326.009-.502 0-.177-.011-.315-.032-.415A1.405 1.405 0 0 0 10.43.46a.5.5 0 0 0-.192-.219 1.1 1.1 0 0 0-.314-.123 6.38 6.38 0 0 0-1.265-.119c-1.162-.012-1.908.061-2.24.22a1.246 1.246 0 0 0-.355.273c-.113.134-.129.207-.048.219.375.055.641.186.797.393l.056.109c.044.079.088.22.132.42.043.201.072.423.084.667.031.444.031.824 0 1.141a14.18 14.18 0 0 1-.089.739c-.029.177-.07.32-.127.429-.056.11-.093.177-.112.201a.175.175 0 0 1-.047.046.725.725 0 0 1-.253.045c-.088 0-.194-.042-.319-.127a2.29 2.29 0 0 1-.389-.352 4.726 4.726 0 0 1-.454-.625 10.749 10.749 0 0 1-.525-.95l-.15-.264a27.093 27.093 0 0 1-.384-.744 14.652 14.652 0 0 1-.431-.945.603.603 0 0 0-.225-.292L3.533.574a1.02 1.02 0 0 0-.365-.137L.6.456C.338.456.16.513.066.629L.029.684A.283.283 0 0 0 0 .83a.7.7 0 0 0 .057.246c.374.858.782 1.686 1.223 2.483.44.797.823 1.44 1.147 1.926.325.487.656.947.994 1.379.337.432.56.709.67.83.109.122.195.213.257.274l.235.219c.15.147.37.322.66.525.291.204.613.405.965.603.354.198.764.359 1.233.484.469.125.924.175 1.368.15h1.078c.218-.018.384-.085.496-.201l.038-.045a.62.62 0 0 0 .07-.169.903.903 0 0 0 .032-.251 2.934 2.934 0 0 1 .061-.707c.047-.21.1-.369.16-.475a1.159 1.159 0 0 1 .361-.402.578.578 0 0 1 .075-.031c.15-.049.326-.002.529.141s.394.32.572.53c.178.209.392.445.642.707.25.261.468.456.656.584l.187.11c.125.073.288.14.487.201.2.06.375.076.525.045l2.399-.036c.237 0 .422-.039.553-.114.131-.076.209-.16.234-.251a.702.702 0 0 0 .005-.311 1.113 1.113 0 0 0-.066-.242z"/></svg>