<svg width="44" height="37" viewBox="0 0 44 37" fill="none" xmlns="http://www.w3.org/2000/svg">
<path fill-rule="evenodd" clip-rule="evenodd" d="M1.44298 0.222467C0.754574 0.586682 0.237445 1.21053 0.163996 1.76541C0.148618 1.8819 0.110933 1.9587 0.0692 1.9587C0.0107746 1.9587 0 4.53914 0 18.5046C0 32.0458 0.011938 35.0504 0.0657603 35.0504C0.105115 35.0504 0.155649 35.1695 0.191666 35.3468C0.306493 35.9126 0.793979 36.467 1.46696 36.7972L1.84635 36.9834L21.8274 36.9975C33.8425 37.0059 41.9294 36.9926 42.1119 36.9641C42.7371 36.8662 43.456 36.3753 43.6798 35.8936C43.7306 35.7842 43.8197 35.629 43.8778 35.5487L43.9835 35.4026L43.9975 18.7708C44.0059 8.66864 43.9929 2.01767 43.9642 1.82984C43.9211 1.54732 43.8477 1.3896 43.5012 0.834922C43.3874 0.65266 42.9477 0.334216 42.5672 0.158449L42.2243 0L22.0354 0.00453593L1.84635 0.00907188L1.44298 0.222467ZM27.4618 5.31865C27.5839 5.36029 27.7148 5.43761 27.7527 5.49044C27.8079 5.5674 27.8217 5.95883 27.8217 7.4544C27.8217 9.0827 27.8115 9.33259 27.7423 9.40316C27.6858 9.46068 27.6372 9.47001 27.5738 9.43547C27.4822 9.38548 26.4971 9.28584 25.6465 9.24043C25.3822 9.22636 24.9838 9.2395 24.7613 9.26971C24.5387 9.29986 24.1973 9.34641 24.0025 9.37316C23.58 9.43114 23.1923 9.56593 22.6114 9.8568C22.264 10.0308 22.0934 10.1617 21.7232 10.5385C21.2547 11.0153 20.9435 11.4119 20.7506 11.778C20.5546 12.1499 20.3319 12.6877 20.2624 12.9569C20.2249 13.1023 20.1698 13.2792 20.14 13.3501C20.0703 13.5159 19.8798 14.4418 19.8798 14.6146C19.8798 14.6874 19.8486 14.8095 19.8104 14.8861C19.7672 14.9726 19.72 15.3728 19.6857 15.9427C19.6516 16.5096 19.5979 16.9655 19.5453 17.1356C19.4162 17.5528 19.5387 17.7465 19.715 17.4039C19.7639 17.3089 19.8625 17.1175 19.9341 16.9787C20.3188 16.2321 21.0475 15.4956 21.7645 15.1286C21.9104 15.054 22.0866 14.9599 22.1562 14.9197C22.2257 14.8794 22.3425 14.8461 22.4156 14.8457C22.4886 14.8453 22.6302 14.8101 22.7301 14.7676C22.9903 14.6568 24.6449 14.6568 24.9052 14.7676C25.0051 14.8101 25.1483 14.8449 25.2236 14.8449C25.3753 14.8449 25.8406 15.0612 26.3788 15.382C26.8201 15.6449 27.4692 16.2978 27.7929 16.8043C27.9285 17.0165 28.0816 17.253 28.1329 17.3299C28.1843 17.4067 28.2263 17.4923 28.2263 17.5202C28.2263 17.5481 28.2734 17.6521 28.3308 17.7513C28.5243 18.0855 28.7836 18.868 28.905 19.4839C29.137 20.6615 29.1366 20.6556 29.1344 22.7444C29.1332 23.857 29.1126 24.8716 29.0886 24.9992C29.0647 25.1268 29.0212 25.3587 28.9921 25.5147C28.8401 26.3285 28.7923 26.533 28.7211 26.6744C28.6783 26.7595 28.6261 26.9102 28.6052 27.0095C28.554 27.2527 28.2067 28.0015 28.1054 28.0873C28.0606 28.1251 28.024 28.1984 28.024 28.2501C28.024 28.3018 27.8605 28.5947 27.6606 28.901C27.1029 29.7556 26.3651 30.452 25.4357 31.0006C25.0118 31.2509 24.0798 31.5969 23.8297 31.5969C23.7507 31.5969 23.5979 31.6362 23.4902 31.6841C23.1983 31.814 21.5369 31.8433 21.1445 31.7255C20.9914 31.6796 20.7481 31.6225 20.6037 31.5985C20.108 31.5166 19.2606 31.1307 18.6641 30.7154C17.9213 30.1982 17.1619 29.2748 16.6759 28.2981C16.5983 28.1421 16.5149 27.9798 16.4906 27.9373C16.3845 27.7523 16.1871 27.2665 16.1871 27.1905C16.1871 27.1448 16.1512 27.0366 16.1073 26.9501C15.996 26.7308 15.8848 26.3414 15.8842 26.1685C15.8839 26.0887 15.8392 25.9147 15.7849 25.7819C15.7306 25.6491 15.6625 25.3549 15.6335 25.1281C15.6046 24.9013 15.5587 24.5997 15.5315 24.458C15.2974 23.2398 15.3017 23.3235 15.3064 20.0509C15.3094 17.8918 15.3294 16.8215 15.3712 16.5716C15.4043 16.3732 15.4517 16.0137 15.4763 15.7727C15.501 15.5317 15.5454 15.2302 15.575 15.1026C15.6046 14.975 15.6489 14.6619 15.6735 14.4068C15.698 14.1516 15.7427 13.8733 15.7727 13.7882C15.8027 13.7032 15.8736 13.39 15.9303 13.0924C16.0552 12.4358 16.2149 11.8127 16.292 11.6803C16.3465 11.5868 16.4916 11.186 16.5953 10.8429C16.6221 10.7538 16.6779 10.6524 16.7191 10.6175C16.7604 10.5826 16.7942 10.5148 16.7942 10.4669C16.7942 10.3499 17.2606 9.3862 17.5193 8.96879C17.9309 8.30458 18.785 7.34219 19.3652 6.88896C19.7526 6.58629 20.4537 6.14321 20.7731 5.99924C20.9166 5.9345 21.0488 5.85719 21.0669 5.82729C21.085 5.79744 21.1453 5.77301 21.2008 5.77301C21.2564 5.77301 21.4011 5.72688 21.5226 5.67049C21.644 5.6141 21.9216 5.53178 22.1395 5.48756C22.3573 5.44333 22.6038 5.38194 22.6873 5.35122C23.003 5.23489 23.3992 5.21638 25.2924 5.22942C26.844 5.24014 27.2851 5.25829 27.4618 5.31865ZM12.9451 5.59152C13.0182 5.66606 13.0268 6.84685 13.0388 18.4678C13.0511 30.4639 13.0466 31.2659 12.9659 31.3263C12.8314 31.4269 8.38196 31.4191 8.29965 31.318C8.20951 31.2074 8.25377 12.9529 8.34498 12.6285C8.42005 12.3613 8.4766 10.9275 8.41205 10.9275C8.32039 10.9275 8.15341 11.0885 7.76427 11.5522C7.54194 11.817 7.05223 12.3589 6.67593 12.7563C6.29963 13.1538 5.73055 13.7568 5.41131 14.0964C4.72928 14.8218 4.76443 14.7915 4.60256 14.7926C4.50918 14.7931 4.41949 14.7215 4.26486 14.5227C4.14907 14.3739 3.77869 13.9527 3.44179 13.5867C2.59677 12.6687 1.96047 11.9177 1.98095 11.8624C2.00361 11.8013 3.77039 10.1038 5.13436 8.83266C5.46822 8.52148 5.82145 8.18711 5.91928 8.08954C6.01712 7.99196 6.44886 7.58739 6.87873 7.19049C7.30855 6.7936 7.88071 6.25619 8.15023 5.9963C8.41974 5.73642 8.69366 5.51606 8.75891 5.50663C8.82422 5.4972 9.77471 5.494 10.8711 5.49952C12.6181 5.50828 12.8745 5.51962 12.9451 5.59152ZM37.4545 10.2353C37.525 10.3072 37.5339 10.6766 37.5339 13.5238C37.5339 15.9499 37.5487 16.7465 37.5946 16.7933C37.6399 16.8394 38.1857 16.8551 39.7383 16.8551C41.4878 16.8551 41.8309 16.867 41.8816 16.9292C41.9256 16.9832 41.9421 17.4608 41.9426 18.6922C41.9431 20.2501 41.9362 20.3863 41.8534 20.448C41.7834 20.5001 41.3125 20.5148 39.7095 20.5148C38.1793 20.5148 37.6399 20.5306 37.5946 20.5767C37.5488 20.6234 37.5339 21.4015 37.5339 23.7626C37.5339 26.3782 37.5223 26.903 37.4622 26.9867C37.3943 27.0814 37.3073 27.0876 35.8561 27.1019C35.0122 27.1103 34.2745 27.1051 34.2166 27.0903C33.9985 27.0346 33.993 26.9521 33.993 23.7185C33.993 21.3917 33.9782 20.6234 33.9323 20.5767C33.8871 20.5306 33.3548 20.5148 31.8497 20.5148C30.0392 20.5148 29.818 20.5059 29.7352 20.4295C29.6493 20.3503 29.6427 20.2274 29.6427 18.6994C29.6427 17.6641 29.6621 17.0176 29.6951 16.9548C29.7455 16.8588 29.8221 16.8551 31.7724 16.8551C33.0715 16.8551 33.8324 16.836 33.8952 16.8018C33.9903 16.7499 33.993 16.6592 33.993 13.5324C33.993 10.6774 34.0019 10.3072 34.0725 10.2353C34.1414 10.1651 34.3659 10.1543 35.7635 10.1543C37.161 10.1543 37.3855 10.1651 37.4545 10.2353ZM21.6612 18.7533C21.4068 18.8461 21.3447 18.8884 21.0383 19.1789C20.7125 19.4879 20.3156 20.255 20.2539 20.6952C20.238 20.8086 20.1884 21.0174 20.1437 21.1591C20.032 21.5133 20.038 23.9536 20.1514 24.3217C20.1919 24.4533 20.2392 24.719 20.2565 24.912C20.3232 25.6571 20.7413 26.6376 21.1807 27.0789C21.5422 27.442 21.6919 27.4991 22.2826 27.4991C22.7429 27.4991 22.8097 27.4864 23.0242 27.3579C23.1539 27.2802 23.3748 27.0855 23.515 26.9251C23.8279 26.5674 24.2301 25.7661 24.2301 25.5005C24.2301 25.3969 24.2617 25.2127 24.3004 25.0912C24.5436 24.3271 24.5445 21.5712 24.3018 20.9133C24.2624 20.8064 24.2301 20.6484 24.2301 20.5621C24.2301 20.4201 24.1137 20.1126 23.8843 19.6489C23.7392 19.3555 23.3692 18.9697 23.0989 18.8299C22.7433 18.646 22.0562 18.6094 21.6612 18.7533Z" fill="#964C50"/>
</svg>
