<svg width="27" height="27" viewBox="0 0 27 27" fill="none" xmlns="http://www.w3.org/2000/svg">
<path fill-rule="evenodd" clip-rule="evenodd" d="M13.0836 0.0144113C9.94748 0.105239 6.9282 1.30051 4.56577 3.38651C2.04822 5.60944 0.46251 8.64556 0.0746291 11.9856C-0.0248038 12.8417 -0.0248908 14.1854 0.0744551 15.0349C0.391933 17.7499 1.47955 20.2312 3.27013 22.3254C3.5502 22.6529 4.2358 23.3413 4.59474 23.6553C6.73539 25.5281 9.27982 26.636 12.1565 26.9478C12.7252 27.0095 14.1173 27.0185 14.6771 26.9641C18.1561 26.6262 21.2418 25.0842 23.5249 22.5426C26.1867 19.5794 27.3926 15.7101 26.8872 11.7539C26.4292 8.16794 24.4767 4.84945 21.5449 2.67358C19.6219 1.24641 17.4385 0.380068 15.0532 0.0976796C14.7089 0.0569288 13.5404 -0.011134 13.4023 0.00155172C13.3704 0.00447697 13.227 0.0102696 13.0836 0.0144113ZM14.5795 2.197C17.1676 2.45462 19.555 3.56008 21.3953 5.35291C23.4397 7.34458 24.6077 9.8428 24.8347 12.7097C24.8981 13.5094 24.8373 14.6626 24.6882 15.4905C24.0875 18.8256 22.0714 21.6928 19.1491 23.3683C17.8084 24.137 16.4287 24.5924 14.793 24.8063C14.3101 24.8694 12.8453 24.8782 12.3303 24.821C9.67636 24.5266 7.32294 23.4062 5.46411 21.5523C2.95317 19.0479 1.76484 15.5581 2.2213 12.0291C2.7765 7.73682 5.77577 4.1036 9.89667 2.73139C10.8455 2.41547 11.8693 2.22165 12.9388 2.15555C13.2178 2.13829 14.2524 2.16444 14.5795 2.197ZM8.89712 13.5072V18.9098L12.5838 18.9C16.6284 18.8893 16.3415 18.9013 16.9219 18.7179C17.8063 18.4384 18.5916 17.7021 18.9239 16.8409C19.0912 16.407 19.1353 16.1424 19.1368 15.5625C19.1384 14.9654 19.1056 14.7894 18.9209 14.404C18.6911 13.9244 18.29 13.5626 17.638 13.2466L17.2639 13.0653L17.4771 12.96C18.0483 12.6776 18.4176 12.1984 18.547 11.572C18.7379 10.6472 18.3982 9.62607 17.6659 8.9234C17.3731 8.64246 17.2233 8.53846 16.8841 8.38076C16.5524 8.2265 16.3428 8.16941 15.9777 8.1339C15.8132 8.11792 14.2443 8.10575 12.2941 8.10532L8.89712 8.10456V13.5072ZM14.3876 11.1997C14.8136 11.3932 14.8364 11.9621 14.4278 12.2028C14.3375 12.256 14.2773 12.2607 13.692 12.2607H13.0546L13.0467 11.7404C13.0423 11.4542 13.0452 11.2033 13.0531 11.1829C13.064 11.1542 13.2056 11.1458 13.6694 11.1463C14.189 11.1469 14.2874 11.1542 14.3876 11.1997ZM14.5295 14.5081C14.6941 14.5538 14.9302 14.7996 14.9796 14.9767C15.0508 15.2318 14.9866 15.4804 14.8017 15.6652C14.6127 15.8541 14.5545 15.8653 13.7572 15.866L13.0402 15.8666V15.1715V14.4764L13.7283 14.4766C14.1332 14.4767 14.4629 14.4896 14.5295 14.5081Z" fill="white"/>
</svg>
