<svg width="27" height="27" viewBox="0 0 27 27" fill="none" xmlns="http://www.w3.org/2000/svg">
<path d="M26.9262 7.9381C26.863 6.50348 26.631 5.51719 26.2987 4.66256C25.9558 3.75539 25.4284 2.9432 24.7373 2.26803C24.0622 1.58235 23.2446 1.04954 22.3479 0.712055C21.4884 0.379722 20.5072 0.147727 19.0726 0.0844741C17.6273 0.0158646 17.1684 0 13.5027 0C9.83691 0 9.37807 0.0158646 7.9381 0.0791173C6.50348 0.14237 5.51719 0.374571 4.66277 0.706698C3.75539 1.04954 2.9432 1.57699 2.26803 2.26803C1.58235 2.9432 1.04975 3.76075 0.712055 4.65741C0.379722 5.51719 0.147727 6.49812 0.0844741 7.93274C0.0158646 9.37807 0 9.83691 0 13.5027C0 17.1684 0.0158646 17.6273 0.0791173 19.0673C0.14237 20.5019 0.374571 21.4882 0.706904 22.3428C1.04975 23.25 1.58235 24.0622 2.26803 24.7373C2.9432 25.423 3.76075 25.9558 4.65741 26.2933C5.51719 26.6256 6.49812 26.8576 7.93295 26.9209C9.37272 26.9843 9.83176 27 13.4975 27C17.1633 27 17.6221 26.9843 19.0621 26.9209C20.4967 26.8576 21.483 26.6256 22.3374 26.2933C24.152 25.5918 25.5866 24.1571 26.2881 22.3428C26.6203 21.483 26.8525 20.5019 26.9157 19.0673C26.979 17.6273 26.9948 17.1684 26.9948 13.5027C26.9948 9.83691 26.9895 9.37807 26.9262 7.9381ZM24.4948 18.9618C24.4367 20.2804 24.2152 20.9924 24.0306 21.4671C23.5769 22.6434 22.6434 23.5769 21.4671 24.0306C20.9924 24.2152 20.2752 24.4367 18.9618 24.4946C17.5377 24.5581 17.1105 24.5737 13.508 24.5737C9.90552 24.5737 9.47305 24.5581 8.0541 24.4946C6.73547 24.4367 6.02342 24.2152 5.54872 24.0306C4.96337 23.8143 4.43057 23.4715 3.9981 23.0231C3.54977 22.5853 3.20693 22.0578 2.99059 21.4725C2.80598 20.9978 2.5845 20.2804 2.5266 18.9671C2.46314 17.543 2.44748 17.1157 2.44748 13.5132C2.44748 9.91067 2.46314 9.47821 2.5266 8.05945C2.5845 6.74083 2.80598 6.02878 2.99059 5.55407C3.20693 4.96852 3.54977 4.43592 4.00346 4.00325C4.44107 3.55492 4.96852 3.21208 5.55407 2.99595C6.02878 2.81134 6.74619 2.58985 8.05945 2.53175C9.48356 2.4685 9.91088 2.45264 13.5132 2.45264C17.1211 2.45264 17.5482 2.4685 18.9671 2.53175C20.2857 2.58985 20.9978 2.81134 21.4725 2.99595C22.0578 3.21208 22.5907 3.55492 23.0231 4.00325C23.4715 4.44107 23.8143 4.96852 24.0306 5.55407C24.2152 6.02878 24.4367 6.74598 24.4948 8.05945C24.5581 9.48356 24.5739 9.91067 24.5739 13.5132C24.5739 17.1157 24.5581 17.5377 24.4948 18.9618Z" fill="white"/>
<path d="M13.5027 6.56653C9.67351 6.56653 6.56671 9.67312 6.56671 13.5025C6.56671 17.3318 9.67351 20.4384 13.5027 20.4384C17.332 20.4384 20.4386 17.3318 20.4386 13.5025C20.4386 9.67312 17.332 6.56653 13.5027 6.56653ZM13.5027 18.0016C11.0185 18.0016 9.00348 15.9868 9.00348 13.5025C9.00348 11.0181 11.0185 9.0033 13.5027 9.0033C15.987 9.0033 18.0018 11.0181 18.0018 13.5025C18.0018 15.9868 15.987 18.0016 13.5027 18.0016Z" fill="white"/>
<path d="M22.3322 6.29232C22.3322 7.18651 21.6072 7.91155 20.7128 7.91155C19.8186 7.91155 19.0936 7.18651 19.0936 6.29232C19.0936 5.39793 19.8186 4.6731 20.7128 4.6731C21.6072 4.6731 22.3322 5.39793 22.3322 6.29232Z" fill="white"/>
</svg>
