<svg width="28" height="27" viewBox="0 0 28 27" fill="none" xmlns="http://www.w3.org/2000/svg">
<path d="M22.2578 0H5.74219C2.57595 0 0 2.48395 0 5.53711V21.4629C0 24.5161 2.57595 27 5.74219 27H22.2578C25.4241 27 28 24.5161 28 21.4629V5.53711C28 2.48395 25.4241 0 22.2578 0ZM20.9453 16.6641V17.4551V18.7734C20.9453 19.9365 19.964 20.8828 18.7578 20.8828H17.3906C16.1844 20.8828 15.2031 19.9365 15.2031 18.7734C15.2031 17.6103 16.1844 16.6641 17.3906 16.6641H19.3047V8.90193L11.4297 10.2112V18.2461V19.0371V20.3555C11.4297 21.5186 10.4484 22.4648 9.24219 22.4648H7.875C6.66881 22.4648 5.6875 21.5186 5.6875 20.3555C5.6875 19.1924 6.66881 18.2461 7.875 18.2461H9.78906V6.2419L20.9453 4.38713V16.6641Z" fill="white"/>
</svg>
