<svg width="49" height="14" viewBox="0 0 49 14" fill="none" xmlns="http://www.w3.org/2000/svg">
<path d="M0.866352 3.208C0.866352 2.692 0.956352 2.236 1.13635 1.84C1.31635 1.444 1.55635 1.114 1.85635 0.85C2.14435 0.597999 2.46835 0.405999 2.82835 0.274C3.20035 0.141999 3.57235 0.075999 3.94435 0.075999C4.31635 0.075999 4.68235 0.141999 5.04235 0.274C5.41435 0.405999 5.75035 0.597999 6.05035 0.85C6.33835 1.114 6.57235 1.444 6.75235 1.84C6.93235 2.236 7.02235 2.692 7.02235 3.208V9.976C7.02235 10.516 6.93235 10.978 6.75235 11.362C6.57235 11.746 6.33835 12.064 6.05035 12.316C5.75035 12.58 5.41435 12.778 5.04235 12.91C4.68235 13.042 4.31635 13.108 3.94435 13.108C3.57235 13.108 3.20035 13.042 2.82835 12.91C2.46835 12.778 2.14435 12.58 1.85635 12.316C1.55635 12.064 1.31635 11.746 1.13635 11.362C0.956352 10.978 0.866352 10.516 0.866352 9.976V3.208ZM2.70235 9.976C2.70235 10.42 2.82235 10.75 3.06235 10.966C3.31435 11.17 3.60835 11.272 3.94435 11.272C4.28035 11.272 4.56835 11.17 4.80835 10.966C5.06035 10.75 5.18635 10.42 5.18635 9.976V3.208C5.18635 2.764 5.06035 2.44 4.80835 2.236C4.56835 2.02 4.28035 1.912 3.94435 1.912C3.60835 1.912 3.31435 2.02 3.06235 2.236C2.82235 2.44 2.70235 2.764 2.70235 3.208V9.976ZM8.53041 3.208C8.53041 2.692 8.62041 2.236 8.80041 1.84C8.98041 1.444 9.22041 1.114 9.52041 0.85C9.80841 0.597999 10.1324 0.405999 10.4924 0.274C10.8644 0.141999 11.2364 0.075999 11.6084 0.075999C11.9804 0.075999 12.3464 0.141999 12.7064 0.274C13.0784 0.405999 13.4144 0.597999 13.7144 0.85C14.0024 1.114 14.2364 1.444 14.4164 1.84C14.5964 2.236 14.6864 2.692 14.6864 3.208V3.856H12.8504V3.208C12.8504 2.764 12.7244 2.44 12.4724 2.236C12.2324 2.02 11.9444 1.912 11.6084 1.912C11.2724 1.912 10.9784 2.02 10.7264 2.236C10.4864 2.44 10.3664 2.764 10.3664 3.208V9.976C10.3664 10.42 10.4864 10.75 10.7264 10.966C10.9784 11.17 11.2724 11.272 11.6084 11.272C11.9444 11.272 12.2324 11.17 12.4724 10.966C12.7244 10.75 12.8504 10.42 12.8504 9.976V7.564H11.3924V5.944H14.6864V9.976C14.6864 10.516 14.5964 10.978 14.4164 11.362C14.2364 11.746 14.0024 12.064 13.7144 12.316C13.4144 12.58 13.0784 12.778 12.7064 12.91C12.3464 13.042 11.9804 13.108 11.6084 13.108C11.2364 13.108 10.8644 13.042 10.4924 12.91C10.1324 12.778 9.80841 12.58 9.52041 12.316C9.22041 12.064 8.98041 11.746 8.80041 11.362C8.62041 10.978 8.53041 10.516 8.53041 9.976V3.208ZM19.6423 13V0.184H22.3243C22.9123 0.184 23.4103 0.274 23.8183 0.454C24.2383 0.633999 24.5803 0.873999 24.8443 1.174C25.1083 1.474 25.2943 1.822 25.4023 2.218C25.5223 2.602 25.5823 3.004 25.5823 3.424V3.892C25.5823 4.24 25.5523 4.534 25.4923 4.774C25.4443 5.014 25.3663 5.224 25.2583 5.404C25.0543 5.74 24.7423 6.028 24.3223 6.268C24.7543 6.472 25.0723 6.772 25.2763 7.168C25.4803 7.564 25.5823 8.104 25.5823 8.788V9.508C25.5823 10.636 25.3063 11.5 24.7543 12.1C24.2143 12.7 23.3443 13 22.1443 13H19.6423ZM21.4783 7.06V11.164H22.2703C22.6423 11.164 22.9303 11.11 23.1343 11.002C23.3503 10.894 23.5123 10.744 23.6203 10.552C23.7283 10.36 23.7943 10.132 23.8183 9.868C23.8423 9.604 23.8543 9.316 23.8543 9.004C23.8543 8.68 23.8363 8.398 23.8003 8.158C23.7643 7.918 23.6923 7.714 23.5843 7.546C23.4643 7.378 23.3023 7.258 23.0983 7.186C22.8943 7.102 22.6243 7.06 22.2883 7.06H21.4783ZM21.4783 1.912V5.44H22.3063C22.9183 5.44 23.3263 5.29 23.5303 4.99C23.7463 4.678 23.8543 4.228 23.8543 3.64C23.8543 3.064 23.7343 2.632 23.4943 2.344C23.2663 2.056 22.8463 1.912 22.2343 1.912H21.4783ZM33.2464 0.184V10.12C33.2464 10.54 33.1684 10.93 33.0124 11.29C32.8684 11.638 32.6584 11.95 32.3824 12.226C32.1064 12.502 31.7884 12.718 31.4284 12.874C31.0684 13.03 30.6844 13.108 30.2764 13.108C29.8684 13.108 29.4844 13.03 29.1244 12.874C28.7764 12.718 28.4644 12.502 28.1884 12.226C27.9124 11.95 27.6964 11.638 27.5404 11.29C27.3844 10.93 27.3064 10.54 27.3064 10.12V0.184H29.1424V9.94C29.1424 10.396 29.2504 10.732 29.4664 10.948C29.6824 11.164 29.9524 11.272 30.2764 11.272C30.6004 11.272 30.8704 11.164 31.0864 10.948C31.3024 10.732 31.4104 10.396 31.4104 9.94V0.184H33.2464ZM34.9704 13V0.184H37.6884C38.7444 0.184 39.5424 0.472 40.0824 1.048C40.6344 1.624 40.9104 2.44 40.9104 3.496V9.49C40.9104 10.69 40.6164 11.578 40.0284 12.154C39.4524 12.718 38.6184 13 37.5264 13H34.9704ZM36.8064 1.912V11.272H37.6524C38.1684 11.272 38.5344 11.146 38.7504 10.894C38.9664 10.63 39.0744 10.222 39.0744 9.67V3.496C39.0744 2.992 38.9724 2.602 38.7684 2.326C38.5644 2.05 38.1924 1.912 37.6524 1.912H36.8064ZM46.1316 8.518L45.2316 3.874H45.1956L44.2956 8.518H46.1316ZM41.5956 13L44.4576 0.184H45.9876L48.8496 13H47.0136L46.4736 10.246H43.9716L43.4316 13H41.5956Z" fill="#964C50"/>
</svg>
