<svg width="77" height="16" viewBox="0 0 77 16" fill="none" xmlns="http://www.w3.org/2000/svg">
<path d="M2.00176 1.912V5.908H3.04576C3.36976 5.908 3.62776 5.866 3.81976 5.782C4.01176 5.686 4.16176 5.554 4.26976 5.386C4.36576 5.218 4.43176 5.014 4.46776 4.774C4.50376 4.522 4.52176 4.234 4.52176 3.91C4.52176 3.586 4.50376 3.304 4.46776 3.064C4.43176 2.812 4.35976 2.596 4.25176 2.416C4.02376 2.08 3.59176 1.912 2.95576 1.912H2.00176ZM0.165758 13V0.184H3.11776C5.27776 0.184 6.35776 1.438 6.35776 3.946C6.35776 4.702 6.23776 5.344 5.99776 5.872C5.76976 6.4 5.36176 6.826 4.77376 7.15L6.75376 13H4.80976L3.09976 7.528H2.00176V13H0.165758ZM7.75782 13V0.184H9.52182L12.2938 7.906H12.3298V0.184H14.1658V13H12.4378L9.62982 5.296H9.59382V13H7.75782ZM15.8279 13V0.184H18.5459C19.6019 0.184 20.3999 0.472 20.9399 1.048C21.4919 1.624 21.7679 2.44 21.7679 3.496V9.49C21.7679 10.69 21.4739 11.578 20.8859 12.154C20.3099 12.718 19.4759 13 18.3839 13H15.8279ZM17.6639 1.912V11.272H18.5099C19.0259 11.272 19.3919 11.146 19.6079 10.894C19.8239 10.63 19.9319 10.222 19.9319 9.67V3.496C19.9319 2.992 19.8299 2.602 19.6259 2.326C19.4219 2.05 19.0499 1.912 18.5099 1.912H17.6639ZM23.4919 13V0.184H25.2559L27.6139 6.97H27.6499L29.9899 0.184H31.7719V13H29.9359V5.206H29.8999L28.0819 10.714H27.1639L25.3639 5.206H25.3279V13H23.4919ZM32.6299 15.25V14.35H41.6299V15.25H32.6299ZM48.4339 3.874H46.5979V3.46C46.5979 3.04 46.4959 2.68 46.2919 2.38C46.0999 2.068 45.7699 1.912 45.3019 1.912C45.0499 1.912 44.8459 1.96 44.6899 2.056C44.5339 2.152 44.4079 2.272 44.3119 2.416C44.2159 2.572 44.1499 2.752 44.1139 2.956C44.0779 3.148 44.0599 3.352 44.0599 3.568C44.0599 3.82 44.0659 4.03 44.0779 4.198C44.1019 4.366 44.1499 4.516 44.2219 4.648C44.2939 4.78 44.3959 4.894 44.5279 4.99C44.6719 5.086 44.8639 5.182 45.1039 5.278L46.5079 5.836C46.9159 5.992 47.2459 6.178 47.4979 6.394C47.7499 6.598 47.9479 6.838 48.0919 7.114C48.2239 7.402 48.3139 7.732 48.3619 8.104C48.4099 8.464 48.4339 8.878 48.4339 9.346C48.4339 9.886 48.3799 10.39 48.2719 10.858C48.1639 11.314 47.9899 11.704 47.7499 12.028C47.4979 12.364 47.1679 12.628 46.7599 12.82C46.3519 13.012 45.8539 13.108 45.2659 13.108C44.8219 13.108 44.4079 13.03 44.0239 12.874C43.6399 12.718 43.3099 12.502 43.0339 12.226C42.7579 11.95 42.5359 11.632 42.3679 11.272C42.2119 10.9 42.1339 10.498 42.1339 10.066V9.382H43.9699V9.958C43.9699 10.294 44.0659 10.6 44.2579 10.876C44.4619 11.14 44.7979 11.272 45.2659 11.272C45.5779 11.272 45.8179 11.23 45.9859 11.146C46.1659 11.05 46.3039 10.918 46.3999 10.75C46.4959 10.582 46.5499 10.384 46.5619 10.156C46.5859 9.916 46.5979 9.652 46.5979 9.364C46.5979 9.028 46.5859 8.752 46.5619 8.536C46.5379 8.32 46.4899 8.146 46.4179 8.014C46.3339 7.882 46.2199 7.774 46.0759 7.69C45.9439 7.606 45.7639 7.516 45.5359 7.42L44.2219 6.88C43.4299 6.556 42.8959 6.13 42.6199 5.602C42.3559 5.062 42.2239 4.39 42.2239 3.586C42.2239 3.106 42.2899 2.65 42.4219 2.218C42.5539 1.786 42.7519 1.414 43.0159 1.102C43.2679 0.789999 43.5859 0.543999 43.9699 0.364C44.3659 0.171999 44.8339 0.075999 45.3739 0.075999C45.8299 0.075999 46.2439 0.159999 46.6159 0.327999C46.9999 0.495999 47.3299 0.717999 47.6059 0.993999C48.1579 1.57 48.4339 2.23 48.4339 2.974V3.874ZM51.0124 13V1.912H48.8884V0.184H54.9724V1.912H52.8484V13H51.0124ZM55.464 3.208C55.464 2.692 55.554 2.236 55.734 1.84C55.914 1.444 56.154 1.114 56.454 0.85C56.742 0.597999 57.066 0.405999 57.426 0.274C57.798 0.141999 58.17 0.075999 58.542 0.075999C58.914 0.075999 59.28 0.141999 59.64 0.274C60.012 0.405999 60.348 0.597999 60.648 0.85C60.936 1.114 61.17 1.444 61.35 1.84C61.53 2.236 61.62 2.692 61.62 3.208V9.976C61.62 10.516 61.53 10.978 61.35 11.362C61.17 11.746 60.936 12.064 60.648 12.316C60.348 12.58 60.012 12.778 59.64 12.91C59.28 13.042 58.914 13.108 58.542 13.108C58.17 13.108 57.798 13.042 57.426 12.91C57.066 12.778 56.742 12.58 56.454 12.316C56.154 12.064 55.914 11.746 55.734 11.362C55.554 10.978 55.464 10.516 55.464 9.976V3.208ZM57.3 9.976C57.3 10.42 57.42 10.75 57.66 10.966C57.912 11.17 58.206 11.272 58.542 11.272C58.878 11.272 59.166 11.17 59.406 10.966C59.658 10.75 59.784 10.42 59.784 9.976V3.208C59.784 2.764 59.658 2.44 59.406 2.236C59.166 2.02 58.878 1.912 58.542 1.912C58.206 1.912 57.912 2.02 57.66 2.236C57.42 2.44 57.3 2.764 57.3 3.208V9.976ZM65.0721 1.912V5.908H66.1161C66.4401 5.908 66.6981 5.866 66.8901 5.782C67.0821 5.686 67.2321 5.554 67.3401 5.386C67.4361 5.218 67.5021 5.014 67.5381 4.774C67.5741 4.522 67.5921 4.234 67.5921 3.91C67.5921 3.586 67.5741 3.304 67.5381 3.064C67.5021 2.812 67.4301 2.596 67.3221 2.416C67.0941 2.08 66.6621 1.912 66.0261 1.912H65.0721ZM63.2361 13V0.184H66.1881C68.3481 0.184 69.4281 1.438 69.4281 3.946C69.4281 4.702 69.3081 5.344 69.0681 5.872C68.8401 6.4 68.4321 6.826 67.8441 7.15L69.8241 13H67.8801L66.1701 7.528H65.0721V13H63.2361ZM70.9001 13V0.184H76.3721V1.912H72.7361V5.674H75.9041V7.402H72.7361V11.164H76.3721V13H70.9001Z" fill="#964C50"/>
</svg>
