<svg width="28" height="27" viewBox="0 0 28 27" fill="none" xmlns="http://www.w3.org/2000/svg">
<path d="M14 27C21.728 27 28 20.952 28 13.5C28 6.048 21.728 0 14 0C6.272 0 0 6.048 0 13.5C0 20.952 6.272 27 14 27ZM19.684 19.863V19.8641C18.7425 19.8641 15.7687 16.6826 7.41067 18.3341C7.19017 18.3893 6.902 18.4759 6.73867 18.4759C5.67117 18.4759 5.467 16.9358 6.615 16.7006C11.2385 15.7163 15.9635 15.8029 19.9932 18.1271C20.9545 18.7189 20.5462 19.863 19.684 19.863ZM21.2042 16.2934C21.0723 16.2596 21.1108 16.371 20.5077 16.065C16.9785 14.0512 11.7192 13.239 7.0385 14.4641C6.76783 14.535 6.62083 14.6059 6.3665 14.6059C5.117 14.6059 4.78567 12.7935 6.14717 12.4234C11.6492 10.9327 17.5513 11.8024 21.6603 14.1593C22.1177 14.4203 22.2985 14.7589 22.2985 15.2314C22.2927 15.8186 21.819 16.2934 21.2042 16.2934ZM5.306 7.87275C10.5828 6.38325 18.5687 6.8535 23.534 9.648C24.8068 10.3556 24.3063 12.1455 22.953 12.1455L22.9518 12.1444C22.6578 12.1444 22.477 12.0735 22.2227 11.9318C18.2058 9.61875 11.018 9.06413 6.36767 10.3162C6.1635 10.3702 5.90917 10.4569 5.6385 10.4569C4.893 10.4569 4.32367 9.8955 4.32367 9.17212C4.32367 8.433 4.7985 8.0145 5.306 7.87275Z" fill="white"/>
</svg>
