<svg xmlns="http://www.w3.org/2000/svg" viewBox="0 0 24 24"><defs><style>.cls-1{fill:#a22034;}</style></defs><title>ticket 24x24</title><g id="Слой_2" data-name="Слой 2"><g id="Слой_89" data-name="Слой 89"><path class="cls-1" d="M24,8.5v.32a2.39,2.39,0,0,1-.13.28c-.13.17-.28.32-.42.48L21.4,11.65c-.24.25-.49.49-.75.75l-.74-.74-1.07,1.06.77.76-.13.11-6.09,6.07L9.51,23.48a1.6,1.6,0,0,1-.69.52H8.5a.75.75,0,0,1-.2-.1l-.4-.34L5.75,21.43l-.08-.08c.06-.07.1-.14.15-.2a2,2,0,0,0,.37-1.85,2.09,2.09,0,0,0-2.66-1.48,2,2,0,0,0-.8.45s-.09.06-.15,0L.21,15.84a.73.73,0,0,1-.06-1l.38-.41C1.28,13.71,2,13,2.76,12.2l7.72-7.74.08-.07.74.75,1.07-1.07-.76-.76.06,0C12.43,2.52,13.18,1.76,14,1c.31-.3.63-.6,1-.89a.77.77,0,0,1,.79,0c.13.11.27.22.39.34l2.06,2c.19.18.19.18,0,.38a2,2,0,0,0-.35,1.93,2.07,2.07,0,0,0,1.3,1.37,2.21,2.21,0,0,0,.88.1,1.7,1.7,0,0,0,1-.31l.37-.27L23.64,8A1.32,1.32,0,0,1,24,8.5Zm-4.89,2.39L17.62,9.41l-1,1,1.48,1.49Zm-6-6-1.05,1,1.5,1.51,1-1Zm2.27,2.26-1,1.07,1.44,1.45,1-1Z"/></g></g></svg>
